<svg width="31" height="31" viewBox="0 0 31 31" fill="none" xmlns="http://www.w3.org/2000/svg">
<g clip-path="url(#clip0_476_302)">
<path d="M6.18387 0.705559C2.95236 0.705559 0.307556 3.3503 0.307556 6.58187V24.8171C0.307556 28.0486 2.9523 30.6924 6.18387 30.6924H24.4191C27.6506 30.6924 30.2944 28.0486 30.2944 24.8171V6.58187C30.2944 3.35036 27.6506 0.705559 24.4191 0.705559H6.18387ZM7.66185 5.654C9.21129 5.654 10.1657 6.67118 10.1951 8.00825C10.1951 9.3158 9.21123 10.3616 7.63188 10.3616H7.60281C6.08286 10.3616 5.10045 9.31586 5.10045 8.00825C5.10045 6.67121 6.11259 5.654 7.66182 5.654H7.66185ZM21.0142 11.9033C23.9941 11.9033 26.2279 13.851 26.2279 18.0364V25.8498H21.6994V18.5602C21.6994 16.7284 21.0439 15.4787 19.4051 15.4787C18.154 15.4787 17.4082 16.321 17.0808 17.1348C16.9612 17.4259 16.9318 17.8325 16.9318 18.2397V25.8498H12.4032C12.4032 25.8498 12.4626 13.5015 12.4032 12.2229H16.9327V14.1526C17.5345 13.2241 18.611 11.9033 21.0142 11.9033V11.9033ZM5.36757 12.2238H9.89616V25.8499H5.36757V12.2238Z" fill="white"/>
</g>
<defs>
<clipPath id="clip0_476_302">
<rect width="30" height="30" fill="white" transform="translate(0.301941 0.698059)"/>
</clipPath>
</defs>
</svg>
