<svg width="27" height="40" viewBox="0 0 27 40" fill="none" xmlns="http://www.w3.org/2000/svg">
<g clip-path="url(#clip0_189_546)">
<path d="M7.00001 40.0001C10.68 40.0001 13.6667 37.0134 13.6667 33.3334V26.6667H7.00001C3.32001 26.6667 0.333344 29.6534 0.333344 33.3334C0.333344 37.0134 3.32001 40.0001 7.00001 40.0001Z" fill="#0ACF83"/>
<path d="M0.333344 19.9999C0.333344 16.3199 3.32001 13.3333 7.00001 13.3333H13.6667V26.6666H7.00001C3.32001 26.6666 0.333344 23.6799 0.333344 19.9999Z" fill="#A259FF"/>
<path d="M0.333344 6.66667C0.333344 2.98667 3.32001 0 7.00001 0H13.6667V13.3333H7.00001C3.32001 13.3333 0.333344 10.3467 0.333344 6.66667Z" fill="#F24E1E"/>
<path d="M13.6667 0H20.3334C24.0134 0 27 2.98667 27 6.66667C27 10.3467 24.0134 13.3333 20.3334 13.3333H13.6667V0Z" fill="#FF7262"/>
<path d="M27 19.9999C27 23.6799 24.0134 26.6666 20.3334 26.6666C16.6534 26.6666 13.6667 23.6799 13.6667 19.9999C13.6667 16.3199 16.6534 13.3333 20.3334 13.3333C24.0134 13.3333 27 16.3199 27 19.9999Z" fill="#1ABCFE"/>
</g>
<defs>
<clipPath id="clip0_189_546">
<rect width="26.6667" height="40" fill="white" transform="translate(0.333344)"/>
</clipPath>
</defs>
</svg>
