<svg width="30" height="41" viewBox="0 0 30 41" fill="none" xmlns="http://www.w3.org/2000/svg">
<g clip-path="url(#clip0_101_317)">
<path d="M9.54383 31.3592C9.54383 31.3592 8.01805 32.2465 10.6297 32.5467C13.7938 32.9077 15.4108 32.856 18.8976 32.196C18.8976 32.196 19.8143 32.7708 21.0945 33.2687C13.2782 36.6187 3.4044 33.0746 9.54383 31.3592ZM8.58868 26.9877C8.58868 26.9877 6.87735 28.2545 9.49099 28.5248C12.8709 28.8735 15.54 28.902 20.1587 28.0126C20.1587 28.0126 20.7976 28.6603 21.8021 29.0145C12.3516 31.778 1.82545 29.2324 8.58868 26.9877Z" fill="#5382A1"/>
<path d="M16.6408 19.5722C18.5668 21.7895 16.1348 23.7849 16.1348 23.7849C16.1348 23.7849 21.0251 21.2604 18.7792 18.099C16.6816 15.151 15.0729 13.686 23.7813 8.63562C23.7813 8.63562 10.1121 12.0496 16.6408 19.5722Z" fill="#E76F00"/>
<path d="M26.9786 34.5926C26.9786 34.5926 28.1077 35.5229 25.735 36.2426C21.2233 37.6095 6.95672 38.0222 2.99348 36.2971C1.56886 35.6774 4.24053 34.8173 5.08088 34.6368C5.95729 34.4467 6.45822 34.4822 6.45822 34.4822C4.87383 33.366 -3.78259 36.6737 2.06123 37.6209C17.998 40.2054 31.1123 36.4572 26.9786 34.5926ZM10.2775 22.4583C10.2775 22.4583 3.02076 24.182 7.70781 24.8077C9.68677 25.0727 13.6319 25.0128 17.3067 24.7048C20.3099 24.4517 23.3255 23.9129 23.3255 23.9129C23.3255 23.9129 22.2665 24.3665 21.5004 24.8896C14.1312 26.8277 -0.104902 25.9261 3.99348 23.9436C7.45949 22.2682 10.2775 22.4583 10.2775 22.4583ZM23.2956 29.7348C30.7869 25.8421 27.3232 22.1013 24.9056 22.6053C24.313 22.7285 24.0489 22.8354 24.0489 22.8354C24.0489 22.8354 24.2689 22.4909 24.689 22.3417C29.4716 20.6602 33.1499 27.3009 23.145 29.931C23.145 29.9311 23.261 29.8275 23.2956 29.7348Z" fill="#5382A1"/>
<path d="M18.7791 0.48034C18.7791 0.48034 22.9279 4.63063 14.8442 11.0122C8.36202 16.1316 13.3661 19.0504 14.8416 22.3853C11.0577 18.9714 8.28087 15.9661 10.1439 13.1691C12.8781 9.06311 20.453 7.07259 18.7791 0.48034Z" fill="#E76F00"/>
<path d="M11.0136 40.2832C18.2043 40.7435 29.2462 40.0278 29.5077 36.6254C29.5077 36.6254 29.0051 37.9153 23.5651 38.9396C17.4277 40.0945 9.85825 39.9597 5.36865 39.2195C5.36877 39.2195 6.28761 39.9802 11.0136 40.2832Z" fill="#5382A1"/>
</g>
<defs>
<clipPath id="clip0_101_317">
<rect width="29.5954" height="40" fill="white" transform="translate(0 0.4375)"/>
</clipPath>
</defs>
</svg>
