<svg width="40" height="42" viewBox="0 0 40 42" fill="none" xmlns="http://www.w3.org/2000/svg">
<g clip-path="url(#clip0_101_324)">
<path d="M39.9775 9.75314C39.9923 9.80798 40 9.86455 40 9.92142V18.7602C40 18.9911 39.8766 19.2044 39.6761 19.3192L32.2578 23.5906V32.0563C32.2578 32.1695 32.2281 32.2808 32.1715 32.379C32.115 32.4771 32.0336 32.5587 31.9356 32.6155L16.45 41.53C16.4145 41.55 16.3759 41.5628 16.3372 41.5767C16.3227 41.5814 16.3091 41.5903 16.2937 41.5944C16.1855 41.6229 16.0717 41.6229 15.9634 41.5944C15.9456 41.5897 15.9295 41.5799 15.9127 41.5735C15.8772 41.5605 15.8402 41.5492 15.8064 41.53L0.323906 32.6153C0.225522 32.5589 0.143772 32.4774 0.0869032 32.3793C0.0300344 32.2811 5.86505e-05 32.1697 0 32.0563L0 5.54002C0 5.48189 0.008125 5.42548 0.0225 5.3708C0.0273437 5.3522 0.0385938 5.33533 0.0451563 5.31673C0.0571875 5.28298 0.0685937 5.2483 0.08625 5.21689C0.0982812 5.19595 0.115937 5.17908 0.130469 5.1597C0.149062 5.13392 0.165937 5.10736 0.187656 5.0847C0.20625 5.06627 0.230469 5.05252 0.251406 5.03642C0.274844 5.01705 0.295625 4.99611 0.322188 4.9808H0.322969L8.06453 0.52361C8.16256 0.467193 8.27369 0.4375 8.3868 0.4375C8.4999 0.4375 8.61103 0.467193 8.70906 0.52361L16.4506 4.9808H16.4522C16.478 4.99705 16.4998 5.01705 16.5231 5.03564C16.5441 5.05173 16.5675 5.06627 16.5859 5.08408C16.6086 5.10736 16.6247 5.13408 16.6439 5.1597C16.6577 5.17908 16.6763 5.19595 16.6875 5.21689C16.7059 5.24908 16.7164 5.28298 16.7294 5.31689C16.7358 5.33533 16.747 5.3522 16.7519 5.37158C16.7667 5.42642 16.7744 5.48314 16.7745 5.54002V22.1016L23.2255 18.387V9.92064C23.2255 9.86439 23.2336 9.80705 23.2481 9.75314C23.2537 9.73377 23.2642 9.71689 23.2706 9.69845C23.2836 9.66455 23.2948 9.6297 23.3125 9.59845C23.3245 9.57752 23.3422 9.56064 23.3561 9.54127C23.3753 9.51548 23.3914 9.48892 23.4139 9.46627C23.4327 9.44783 23.4559 9.43408 23.4769 9.41798C23.5011 9.39861 23.522 9.37767 23.5478 9.36236H23.5486L31.2909 4.90517C31.3889 4.84868 31.5001 4.81894 31.6132 4.81894C31.7263 4.81894 31.8375 4.84868 31.9355 4.90517L39.677 9.36236C39.7044 9.37845 39.7253 9.39861 39.7495 9.41705C39.7695 9.4333 39.793 9.44783 39.8116 9.46548C39.8341 9.48892 39.8502 9.51548 39.8694 9.54127C39.8841 9.56064 39.9017 9.57752 39.9131 9.59845C39.9316 9.6297 39.942 9.66455 39.9548 9.69845C39.9622 9.71689 39.9727 9.73377 39.9775 9.75314ZM38.7095 18.3872V11.0372L36.0003 12.5967L32.2577 14.7517V22.1017L38.7103 18.3872H38.7095ZM30.968 31.6833V24.3281L27.2864 26.4308L16.7737 32.4308V39.8549L30.968 31.683V31.6833ZM1.29047 6.65564V31.6833L15.4831 39.8542V32.4316L8.06875 28.2353L8.06641 28.2338L8.06328 28.2322C8.03828 28.2177 8.01719 28.1967 7.99391 28.1791C7.97359 28.1628 7.95031 28.15 7.93266 28.1322L7.93109 28.1299C7.91016 28.1097 7.89562 28.0847 7.87797 28.0622C7.86172 28.0403 7.8425 28.0219 7.82953 27.9994L7.82875 27.9969C7.81422 27.9728 7.80531 27.9438 7.79484 27.9164C7.78438 27.8922 7.77078 27.8695 7.76422 27.8439V27.8431C7.75625 27.8125 7.75469 27.7802 7.75141 27.7488C7.74828 27.7247 7.74172 27.7005 7.74172 27.6763V10.3703L3.99969 8.21439L1.29047 6.65658V6.65564ZM8.38766 1.82705L1.93734 5.54002L8.38609 9.25283L14.8355 5.53908L8.38609 1.82705H8.38766ZM11.742 24.9986L15.4839 22.8445V6.65564L12.775 8.21533L9.03203 10.3702V26.5589L11.742 24.9986ZM31.6131 6.20861L25.1638 9.92142L31.6131 13.6344L38.0617 9.92064L31.6131 6.20861ZM30.9678 14.7517L27.2252 12.5967L24.5161 11.0372V18.3872L28.258 20.5414L30.968 22.1017V14.7517H30.9678ZM16.1277 31.3152L25.5875 25.9145L30.3163 23.2158L23.8716 19.5053L16.4514 23.7772L9.68859 27.6706L16.1277 31.3152Z" fill="#FF2D20"/>
</g>
<defs>
<clipPath id="clip0_101_324">
<rect width="40" height="41.25" fill="white" transform="translate(0 0.4375)"/>
</clipPath>
</defs>
</svg>
