<svg width="40" height="41" viewBox="0 0 40 41" fill="none" xmlns="http://www.w3.org/2000/svg">
<g clip-path="url(#clip0_301_318)">
<mask id="mask0_301_318" style="mask-type:luminance" maskUnits="userSpaceOnUse" x="0" y="0" width="40" height="41">
<path d="M0 0.75H40V40.75H0V0.75Z" fill="white"/>
</mask>
<g mask="url(#mask0_301_318)">
<path d="M18.69 0.760208C18.6033 0.768542 18.33 0.796875 18.0833 0.815208C12.4033 1.32854 7.08333 4.39354 3.71 9.10521C1.84717 11.6914 0.6362 14.6891 0.18 17.8435C0.02 18.9435 0 19.2669 0 20.7569C0 22.2469 0.02 22.5719 0.18 23.6702C1.26667 31.1819 6.61333 37.4919 13.8617 39.8302C15.16 40.2485 16.5283 40.5335 18.0833 40.7069C18.69 40.7735 21.31 40.7735 21.9167 40.7069C24.6017 40.4085 26.8783 39.7435 29.1217 38.5985C29.4667 38.4235 29.5333 38.3752 29.4867 38.3369C28.3893 36.8897 27.3032 35.4341 26.2283 33.9702L23.03 29.6485L19.0233 23.7169C17.6902 21.7329 16.3446 19.7573 14.9867 17.7902C14.9717 17.7852 14.9567 20.4202 14.9483 23.6402C14.9367 29.2735 14.9317 29.5002 14.8617 29.6335C14.7934 29.7891 14.6716 29.9151 14.5183 29.9885C14.3933 30.0519 14.285 30.0635 13.6933 30.0635H13.0167L12.8367 29.9502C12.7253 29.8799 12.6349 29.7809 12.575 29.6635L12.4917 29.4885L12.5 21.6485L12.5117 13.8052L12.6333 13.6519C12.7152 13.556 12.8134 13.4753 12.9233 13.4135C13.0833 13.3352 13.145 13.3285 13.8233 13.3285C14.62 13.3285 14.7533 13.3585 14.96 13.5852C15.0183 13.6485 17.1883 16.9185 19.785 20.8552L27.675 32.8085L30.8417 37.6052L31.0033 37.5002C32.5273 36.487 33.909 35.2746 35.1117 33.8952C37.6319 31.0107 39.2667 27.4605 39.82 23.6702C39.98 22.5702 40 22.2469 40 20.7569C40 19.2669 39.98 18.9435 39.82 17.8435C38.7333 10.3335 33.3867 4.02187 26.1383 1.68354C24.7836 1.25282 23.3887 0.96077 21.975 0.811875C21.5983 0.771875 19.015 0.728542 18.6917 0.761875L18.69 0.760208ZM26.8783 12.8602C26.9713 12.907 27.054 12.9718 27.1218 13.0507C27.1896 13.1297 27.2411 13.2213 27.2733 13.3202C27.3033 13.4202 27.3117 15.5952 27.3033 20.4952L27.2917 27.5252L26.0533 25.6252L24.81 23.7252V18.6152C24.81 15.3102 24.825 13.4535 24.8483 13.3635C24.8761 13.2594 24.9246 13.162 24.9911 13.0772C25.0576 12.9925 25.1405 12.922 25.235 12.8702C25.3967 12.7869 25.455 12.7802 26.0683 12.7802C26.6467 12.7802 26.7483 12.7902 26.8783 12.8602Z" fill="black"/>
</g>
</g>
<defs>
<clipPath id="clip0_301_318">
<rect width="40" height="40" fill="white" transform="translate(0 0.75)"/>
</clipPath>
</defs>
</svg>
