<svg width="40" height="36" viewBox="0 0 40 36" fill="none" xmlns="http://www.w3.org/2000/svg">
<g clip-path="url(#clip0_189_552)">
<path d="M32.888 11.5977C32.4623 11.4517 32.033 11.3164 31.6005 11.1919C31.6731 10.8951 31.74 10.6018 31.7994 10.3137C32.7741 5.58225 32.1369 1.77053 29.9605 0.515529C27.8737 -0.687596 24.4611 0.566936 21.0145 3.56647C20.6749 3.86261 20.3427 4.16729 20.0184 4.48022C19.8013 4.27213 19.5804 4.06809 19.3558 3.86819C15.7436 0.660998 12.123 -0.690721 9.94891 0.567873C7.86406 1.77475 7.24672 5.35803 8.12422 9.84209C8.21152 10.2862 8.31009 10.728 8.41984 11.1671C7.90734 11.3127 7.41281 11.4677 6.93953 11.6327C2.70453 13.1093 0 15.4232 0 17.8233C0 20.3022 2.90344 22.7887 7.31437 24.2963C7.67198 24.418 8.03256 24.5308 8.39578 24.6346C8.27782 25.1075 8.17309 25.5836 8.08172 26.0624C7.24516 30.4687 7.89844 33.9673 9.97766 35.1665C12.1252 36.4049 15.7295 35.1321 19.2391 32.0641C19.5236 31.8147 19.802 31.5582 20.0737 31.2949C20.4249 31.6337 20.7855 31.9627 21.155 32.2815C24.5547 35.2068 27.9122 36.388 29.9894 35.1855C32.1348 33.9435 32.8322 30.1851 31.9269 25.6124C31.8556 25.2542 31.7756 24.8977 31.687 24.5433C31.9402 24.4683 32.1886 24.3912 32.4308 24.3108C37.0164 22.7916 40 20.3354 40 17.8233C40 15.4144 37.2081 13.0849 32.888 11.5977ZM31.8934 22.689C31.6747 22.7613 31.4503 22.8312 31.2216 22.8991C30.7153 21.2965 30.0322 19.5924 29.1961 17.8316C29.9939 16.1129 30.6508 14.4305 31.1428 12.8383C31.552 12.9568 31.9491 13.0816 32.3319 13.2133C36.0334 14.4877 38.2912 16.3716 38.2912 17.8233C38.2912 19.3696 35.8528 21.3769 31.8934 22.689ZM30.2506 25.9443C30.6509 27.9662 30.708 29.7943 30.4428 31.2235C30.2047 32.5077 29.7256 33.3638 29.1331 33.7068C27.8727 34.4365 25.1769 33.488 22.2695 30.9862C21.9258 30.6898 21.5904 30.384 21.2638 30.069C22.3909 28.8363 23.5173 27.4033 24.6167 25.8118C26.5505 25.6402 28.3773 25.3596 30.0341 24.9766C30.1139 25.2974 30.1861 25.6201 30.2506 25.9443ZM13.6369 33.5807C12.4053 34.0155 11.4244 34.028 10.8314 33.6862C9.56969 32.9585 9.04516 30.1493 9.76062 26.3812C9.84567 25.9359 9.94306 25.4931 10.0527 25.0532C11.6911 25.4157 13.5047 25.6763 15.443 25.8335C16.5498 27.3908 17.7087 28.8222 18.8767 30.0757C18.6285 30.3159 18.3744 30.5499 18.1147 30.7776C16.5627 32.1341 15.0075 33.0966 13.6369 33.5807ZM7.86719 22.6794C5.91672 22.0127 4.30594 21.1463 3.20188 20.2008C2.20969 19.3513 1.70891 18.5077 1.70891 17.8233C1.70891 16.3668 3.88031 14.509 7.50203 13.2463C7.94156 13.0932 8.40156 12.9487 8.87891 12.813C9.37953 14.4412 10.0361 16.1435 10.8284 17.8649C10.0258 19.6118 9.35984 21.3413 8.85437 22.9887C8.52283 22.8937 8.19367 22.7906 7.86719 22.6794ZM9.80125 9.51381C9.04953 5.67209 9.54875 2.77412 10.8052 2.04678C12.1433 1.27209 15.1023 2.37662 18.2212 5.146C18.4246 5.327 18.6247 5.51166 18.8214 5.6999C17.6592 6.94787 16.5109 8.36865 15.4139 9.91678C13.5327 10.0912 11.7319 10.3712 10.0763 10.7463C9.97425 10.3379 9.88255 9.92699 9.80125 9.51397V9.51381ZM27.0555 13.7744C26.6644 13.099 26.2589 12.432 25.8391 11.774C27.1153 11.9354 28.3381 12.1496 29.4864 12.4115C29.1417 13.5165 28.712 14.6716 28.2063 15.856C27.8366 15.1546 27.4529 14.4606 27.0555 13.7744ZM20.0192 6.92115C20.8073 7.77506 21.5967 8.72834 22.3731 9.76272C20.7981 9.68833 19.2205 9.68802 17.6455 9.76178C18.4227 8.73694 19.2188 7.7849 20.0192 6.92115ZM12.9378 13.7862C12.5454 14.4668 12.1689 15.1564 11.8086 15.8546C11.3111 14.6744 10.8853 13.514 10.5377 12.3933C11.6789 12.138 12.8959 11.9293 14.1641 11.7708C13.7396 12.4329 13.3307 13.1048 12.9378 13.786V13.7862ZM14.2005 23.9974C12.8903 23.8512 11.655 23.6532 10.5141 23.4048C10.8672 22.2641 11.3023 21.079 11.8106 19.8735C12.1723 20.5722 12.5504 21.2623 12.9445 21.9432C13.3498 22.6432 13.7695 23.3288 14.2005 23.9974ZM20.0664 28.8458C19.2564 27.9721 18.4486 27.0054 17.6597 25.9657C18.4256 25.9957 19.2064 26.011 20 26.011C20.8153 26.011 21.6213 25.9927 22.4145 25.9574C21.6356 27.0158 20.8492 27.984 20.0664 28.8458ZM28.2223 19.8119C28.757 21.0307 29.2077 22.2096 29.5655 23.3307C28.4058 23.5954 27.1536 23.8085 25.8342 23.9668C26.257 23.2966 26.6664 22.618 27.0622 21.9315C27.4646 21.2337 27.8514 20.527 28.2223 19.8119ZM25.582 21.0777C24.9761 22.1303 24.3361 23.1629 23.6631 24.1738C22.444 24.2602 21.2222 24.303 20 24.3024C18.7552 24.3024 17.5444 24.2637 16.3784 24.188C15.6878 23.1794 15.0357 22.145 14.4233 21.0871H14.4234C13.8139 20.0348 13.2446 18.9597 12.7167 17.8641C13.2433 16.7683 13.8109 15.6927 14.4183 14.6396L14.4181 14.6397C15.0253 13.5863 15.6723 12.5564 16.3577 11.5521C17.5472 11.4621 18.767 11.4152 19.9998 11.4152H20C21.2384 11.4152 22.4598 11.4626 23.6491 11.5532C24.3275 12.556 24.9704 13.5824 25.5764 14.6305C26.1858 15.6813 26.7609 16.7517 27.3008 17.8399C26.7665 18.9392 26.1932 20.0192 25.582 21.0777ZM29.107 1.99584C30.4464 2.76834 30.9673 5.8835 30.1258 9.96865C30.072 10.2293 30.0117 10.4947 29.9461 10.764C28.2864 10.3808 26.4844 10.096 24.5977 9.91897C23.4986 8.35381 22.3597 6.93084 21.2164 5.69897C21.516 5.41014 21.8228 5.1288 22.1364 4.85522C25.0895 2.28537 27.8495 1.27069 29.107 1.99584ZM20 14.2515C21.9727 14.2515 23.5719 15.8507 23.5719 17.8233C23.5719 19.796 21.9727 21.3952 20 21.3952C18.0273 21.3952 16.4281 19.796 16.4281 17.8233C16.4281 15.8507 18.0273 14.2515 20 14.2515Z" fill="#00D8FF"/>
</g>
<defs>
<clipPath id="clip0_189_552">
<rect width="40" height="35.625" fill="white" transform="translate(0 0.0625)"/>
</clipPath>
</defs>
</svg>
