<svg width="40" height="41" viewBox="0 0 40 41" fill="none" xmlns="http://www.w3.org/2000/svg">
<path d="M7.73998 8.5H34.24C36.74 8.5 38 9.68 38 12.08V28.92C38 31.3 36.74 32.5 34.24 32.5H7.73998C5.23998 32.5 3.97998 31.3 3.97998 28.92V12.08C3.97998 9.68 5.23998 8.5 7.73998 8.5ZM20.98 25.7L34.46 14.64C34.94 14.24 35.32 13.32 34.72 12.5C34.14 11.68 33.08 11.66 32.38 12.16L20.98 19.88L9.59998 12.16C8.89998 11.66 7.83998 11.68 7.25998 12.5C6.65998 13.32 7.03998 14.24 7.51998 14.64L20.98 25.7Z" fill="white"/>
</svg>
