<svg width="40" height="41" viewBox="0 0 40 41" fill="none" xmlns="http://www.w3.org/2000/svg">
<path d="M20 3C16.3546 3.0043 12.8597 4.45434 10.282 7.03203C7.70435 9.60973 6.25432 13.1046 6.25001 16.75C6.24565 19.729 7.21874 22.6272 9.02001 25C9.02001 25 9.39501 25.4937 9.45626 25.565L20 38L30.5488 25.5588C30.6038 25.4925 30.98 25 30.98 25L30.9813 24.9963C32.7816 22.6245 33.7543 19.7277 33.75 16.75C33.7457 13.1046 32.2957 9.60973 29.718 7.03203C27.1403 4.45434 23.6454 3.0043 20 3ZM20 21.75C19.0111 21.75 18.0444 21.4568 17.2222 20.9073C16.3999 20.3579 15.7591 19.577 15.3806 18.6634C15.0022 17.7498 14.9032 16.7445 15.0961 15.7745C15.289 14.8046 15.7652 13.9137 16.4645 13.2145C17.1637 12.5152 18.0547 12.039 19.0246 11.8461C19.9945 11.6531 20.9998 11.7522 21.9134 12.1306C22.8271 12.509 23.608 13.1499 24.1574 13.9721C24.7068 14.7944 25 15.7611 25 16.75C24.9984 18.0756 24.471 19.3464 23.5337 20.2837C22.5964 21.221 21.3256 21.7483 20 21.75Z" fill="#2D2D2D"/>
</svg>
