<svg width="40" height="41" viewBox="0 0 40 41" fill="none" xmlns="http://www.w3.org/2000/svg">
<g clip-path="url(#clip0_101_313)">
<path d="M3.125 0.4375H36.875C38.6009 0.4375 40 1.83656 40 3.5625V37.3125C40 39.0384 38.6009 40.4375 36.875 40.4375H3.125C1.39906 40.4375 0 39.0384 0 37.3125V3.5625C0 1.83656 1.39906 0.4375 3.125 0.4375Z" fill="#3178C6"/>
<path d="M23.5184 31.7617V36.0773C24.2203 36.437 25.0505 36.7067 26.0087 36.8866C26.967 37.0664 27.977 37.1562 29.0389 37.1562C30.0736 37.1562 31.0567 37.0573 31.988 36.8595C32.9192 36.6617 33.7359 36.3358 34.4377 35.8819C35.1395 35.4278 35.6952 34.8344 36.1047 34.1016C36.5141 33.3689 36.7188 32.4631 36.7188 31.3842C36.7188 30.602 36.6017 29.9164 36.3678 29.3275C36.1365 28.7426 35.7925 28.2088 35.3555 27.7564C34.9147 27.2978 34.3859 26.8866 33.7697 26.5223C33.1533 26.1583 32.4581 25.8144 31.6842 25.4908C31.1173 25.2569 30.6091 25.03 30.1591 24.8097C29.7092 24.5894 29.3267 24.3647 29.0119 24.1353C28.6969 23.9061 28.4539 23.6633 28.283 23.407C28.112 23.1508 28.0266 22.8609 28.0266 22.5372C28.0266 22.2405 28.103 21.9731 28.2559 21.7348C28.4089 21.4966 28.625 21.292 28.9039 21.1213C29.1828 20.9503 29.5247 20.8178 29.9297 20.7233C30.3345 20.6289 30.7845 20.5817 31.2794 20.5817C31.6394 20.5817 32.0195 20.6087 32.4198 20.6627C32.8203 20.7166 33.223 20.7997 33.628 20.9122C34.0317 21.0241 34.4264 21.1661 34.8089 21.337C35.1798 21.5014 35.5345 21.7 35.8684 21.9303V17.898C35.2116 17.6463 34.4939 17.4597 33.7156 17.3383C32.9373 17.2169 32.0442 17.1562 31.0364 17.1562C30.0106 17.1562 29.0389 17.2664 28.1211 17.4867C27.2033 17.7069 26.3956 18.0508 25.6983 18.5183C25.0009 18.9859 24.4498 19.5816 24.0448 20.3053C23.64 21.0291 23.4375 21.8944 23.4375 22.9014C23.4375 24.187 23.8086 25.2839 24.5511 26.192C25.2934 27.1 26.4203 27.8687 27.932 28.4981C28.4901 28.7254 29.0436 28.9637 29.5922 29.213C30.1052 29.4467 30.5483 29.6894 30.9217 29.9411C31.2952 30.1928 31.5898 30.467 31.8058 30.7637C32.0217 31.0605 32.1297 31.3977 32.1297 31.7753C32.1315 32.0471 32.0616 32.3146 31.9272 32.5508C31.7923 32.7889 31.5875 32.9958 31.3131 33.1711C31.0388 33.3464 30.6967 33.4834 30.2873 33.5823C29.878 33.6812 29.3988 33.7308 28.8498 33.7308C27.9141 33.7308 26.9873 33.5667 26.0695 33.2384C25.1516 32.9103 24.3013 32.4181 23.5184 31.7617ZM16.3253 21.0222H21.875V17.4688H6.40625V21.0222H11.9289V36.8438H16.3253V21.0222Z" fill="white"/>
</g>
<defs>
<clipPath id="clip0_101_313">
<rect width="40" height="40" fill="white" transform="translate(0 0.4375)"/>
</clipPath>
</defs>
</svg>
