<svg width="35" height="41" viewBox="0 0 35 41" fill="none" xmlns="http://www.w3.org/2000/svg">
<g clip-path="url(#clip0_1_1117)">
<path d="M17.5 20.5C23.0234 20.5 27.5 16.0234 27.5 10.5C27.5 4.97656 23.0234 0.5 17.5 0.5C11.9766 0.5 7.5 4.97656 7.5 10.5C7.5 16.0234 11.9766 20.5 17.5 20.5ZM24.5 23H23.1953C21.4609 23.7969 19.5312 24.25 17.5 24.25C15.4688 24.25 13.5469 23.7969 11.8047 23H10.5C4.70312 23 0 27.7031 0 33.5V36.75C0 38.8203 1.67969 40.5 3.75 40.5H31.25C33.3203 40.5 35 38.8203 35 36.75V33.5C35 27.7031 30.2969 23 24.5 23Z" fill="#2D2D2D"/>
</g>
<defs>
<clipPath id="clip0_1_1117">
<rect width="35" height="40" fill="white" transform="translate(0 0.5)"/>
</clipPath>
</defs>
</svg>
